<svg xmlns="http://www.w3.org/2000/svg" width="24" height="24" fill="none" viewBox="0 0 24 24" id="mark-as-read"><path fill="#000" d="M2 6.5C2 5.11929 3.11929 4 4.5 4H17V5H4.5C4.30538 5 4.11941 5.03707 3.94877 5.10453L11.7132 11.1435C11.889 11.2803 12.1341 11.2842 12.3143 11.1532L17.2059 7.59565L17.7941 8.40439L12.9024 11.962C12.362 12.355 11.6267 12.3431 11.0993 11.9329L3.18517 5.77747C3.06715 5.99178 3 6.23805 3 6.5V17.5C3 18.3284 3.67157 19 4.5 19H19.5C20.3284 19 21 18.3284 21 17.5V9H22V17.5C22 18.8807 20.8807 20 19.5 20H4.5C3.11929 20 2 18.8807 2 17.5V6.5Z"></path><path fill="#000" d="M19.3841 7.82012L21.8841 4.82012L21.1159 4.17993L19.0206 6.69422L17.9 5.20002L17.1 5.80002L18.6 7.80002C18.6917 7.92233 18.8344 7.99594 18.9872 7.99986C19.14 8.00378 19.2862 7.93756 19.3841 7.82012Z"></path></svg>